<svg fill="#fa4778" xmlns="http://www.w3.org/2000/svg" width="24" height="24" viewBox="0 0 823.862 1150.2439"><path d="M686.43 166.098l-27.552 133.035c-3.148 14.17-16.531 26.765-33.062 26.765H386.51c-26.765 0-48.806 22.041-48.806 48.806v29.126c0 26.765 22.041 48.806 48.806 48.806h202.309c18.893 0 34.636 18.105 30.7 37.785-3.936 20.468-25.189 124.377-27.552 135.397-1.574 11.808-14.169 26.765-33.062 26.765h-165.31c-34.637.787-41.721 1.574-62.188 26.764-20.467 25.19-201.521 251.902-201.521 251.902-1.574 2.361-3.148 1.574-3.148-.787V159.8c0-18.104 14.956-33.062 33.062-33.062h496.718c17.318 0 34.636 17.319 29.912 39.36M722.641 0H109.419C25.19 0 0 63.763 0 103.91v974.542c0 48.018 24.403 62.188 37.785 67.697 13.383 5.51 48.806 9.447 73.996-15.744 0 0 291.261-339.279 295.984-344.789 4.723-5.511 7.084-5.511 10.233-5.511H602.2c78.72 0 93.676-54.316 102.335-87.378C711.62 665.175 792.7 271.58 817.89 147.204 836.784 51.168 812.381 0 722.641 0"/></svg>