<svg fill="#fa4778" xmlns="http://www.w3.org/2000/svg" width="24" height="24" viewBox="0 0 823.862 1150.2439">
  <path d="m686.42998 166.09799-27.552 133.035c-3.148 14.17-16.531 26.765-33.062 26.765l-239.306 0c-26.765 0-48.806 22.04101-48.806 48.80601l0 29.12599c0 26.765 22.041 48.80601 48.806 48.80601l202.309 0c18.893 0 34.636 18.105 30.7 37.78499-3.936 20.468-25.189 124.377-27.552 135.397-1.574 11.808-14.169 26.765-33.062 26.765l-165.31 0c-34.637 0.787-41.721 1.574-62.188 26.764-20.467 25.19005-201.521 251.90205-201.521 251.90205-1.574 2.361-3.148 1.574-3.148-0.787l0-770.66205c0-18.104 14.956-33.062 33.062-33.062l496.718 0c17.318 0 34.636 17.319 29.912 39.36m36.211-166.0979950000003-613.222 0C25.189977-0.0000050000003-0.000023 63.762995-0.000023 103.90999l0 974.54201c0 48.018 24.403 62.188 37.785 67.697 13.383 5.51 48.806 9.447 73.996003-15.744 0 0 291.261-339.27896 295.984-344.78896 4.723-5.511 7.084-5.511 10.233-5.511l184.202 0c78.72 0 93.676-54.316 102.335-87.37804 7.085-27.552 88.165-421.147 113.355-545.523C836.78398 51.168005 812.38098 0.0000049999997 722.64098 0.0000049999997"/>
</svg>
